<?xml version="1.0" encoding="UTF-8" standalone="no"?>
<!-- Generator: Adobe Illustrator 19.0.0, SVG Export Plug-In . SVG Version: 6.00 Build 0)  -->

<svg
   xmlns:dc="http://purl.org/dc/elements/1.1/"
   xmlns:cc="http://creativecommons.org/ns#"
   xmlns:rdf="http://www.w3.org/1999/02/22-rdf-syntax-ns#"
   xmlns:svg="http://www.w3.org/2000/svg"
   xmlns="http://www.w3.org/2000/svg"
   xmlns:sodipodi="http://sodipodi.sourceforge.net/DTD/sodipodi-0.dtd"
   xmlns:inkscape="http://www.inkscape.org/namespaces/inkscape"
   version="1.1"
   id="Capa_1"
   x="0px"
   y="0px"
   viewBox="0 0 510.55 510.55"
   style="enable-background:new 0 0 510.55 510.55;"
   xml:space="preserve"
   sodipodi:docname="location.svg"
   inkscape:version="0.92.5 (0.92.5+68)"><metadata
   id="metadata43"><rdf:RDF><cc:Work
       rdf:about=""><dc:format>image/svg+xml</dc:format><dc:type
         rdf:resource="http://purl.org/dc/dcmitype/StillImage" /><dc:title /></cc:Work></rdf:RDF></metadata><defs
   id="defs41" /><sodipodi:namedview
   pagecolor="#ffffff"
   bordercolor="#666666"
   borderopacity="1"
   objecttolerance="10"
   gridtolerance="10"
   guidetolerance="10"
   inkscape:pageopacity="0"
   inkscape:pageshadow="2"
   inkscape:window-width="1541"
   inkscape:window-height="876"
   id="namedview39"
   showgrid="false"
   inkscape:zoom="0.99129877"
   inkscape:cx="212.88193"
   inkscape:cy="112.53275"
   inkscape:window-x="59"
   inkscape:window-y="24"
   inkscape:window-maximized="1"
   inkscape:current-layer="Capa_1" />
<g
   id="g6">
	<g
   id="g4">
		<path
   d="M 493.8,164.288 C 456.086,65.323 361.155,-0.054 255.248,0 c -23.555,-0.043 -47,3.203 -69.658,9.643 l -0.341,0.102 C 122.365,27.525 68.761,68.874 35.6,125.184 c -0.587,0.991 -0.967,2.092 -1.118,3.234 -4.075,5.439 -7.457,11.364 -10.069,17.638 l -0.64,1.382 c -36.715,79.082 -30.572,171.426 16.296,244.947 46.868,73.521 127.99,118.068 215.179,118.163 58.613,0.05 115.441,-20.167 160.853,-57.225 8.985,-7.654 0,0 8.985,-7.654 C 504.17,375.228 531.515,263.253 493.8,164.288 Z M 184.353,27.828 c 11.282,13.837 27.906,22.236 45.739,23.108 4.876,0.126 9.754,-0.087 14.601,-0.64 7.839,-1.777 16.05,-0.8 23.253,2.765 4.032,2.156 6.258,6.628 5.547,11.145 -1.852,3.402 -4.392,6.38 -7.458,8.747 -7.626,5.173 -12.221,13.765 -12.288,22.98 0.577,5.737 3.648,10.929 8.397,14.199 7.021,4.69 15.673,6.257 23.893,4.326 4.554,-1.193 8.99,-2.798 13.252,-4.796 3.875,-1.906 7.975,-3.313 12.203,-4.19 10.803,-1.519 21.896,5.623 33.22,13.747 5.675,4.105 14.916,11.861 13.005,17.749 -1.468,4.514 -6.98,7.774 -12.8,11.238 -2.355,1.391 -4.659,2.756 -7.322,4.608 -9.426,7.137 -19.756,12.993 -30.72,17.417 -4.144,1.379 -8.363,2.519 -12.638,3.413 -8.902,1.557 -17.456,4.68 -25.267,9.225 -15.676,10.121 -13.764,26.317 -12.561,36.053 -0.282,-0.094 -0.589,-0.205 -0.922,-0.35 -1.459,-0.597 -2.893,-1.28 -4.318,-1.946 -8.824,-5.952 -20.254,-6.41 -29.526,-1.181 -9.272,5.228 -14.795,15.246 -14.267,25.877 0,20.25 15.036,32.06 27.119,41.54 l 4.198,3.328 c 2.667,2.45 5.067,5.176 7.159,8.132 -17.152,-4.318 -34.315,-8.565 -51.49,-12.74 -14.438,-3.49 -29.013,-7.791 -34.987,-18.475 -2.283,-4.841 -3.822,-9.999 -4.565,-15.3 -1.082,-8.411 -4.039,-16.471 -8.653,-23.586 -8.758,-9.775 -20.56,-16.306 -33.493,-18.534 l -1.562,-0.444 c -12.8,-3.806 -19.814,-8.388 -22.101,-14.387 -1.426,-7.786 -0.156,-15.825 3.601,-22.793 4.824,-10.035 6.433,-21.315 4.608,-32.299 -1.915,-8.423 -7.545,-15.525 -15.309,-19.311 -4.613,-2.148 -9.649,-3.23 -14.737,-3.166 -1.084,0 -2.185,0.051 -3.294,0.137 29.974,-40.682 72.201,-70.683 120.483,-85.596 z m 35.038,462.882 0.077,0.077 c -3.348,-1.857 -6.596,-3.891 -9.728,-6.093 -6.898,-4.297 -11.614,-11.354 -12.945,-19.371 0.476,-5.147 2.141,-10.113 4.864,-14.507 1.907,-4.062 3.317,-8.34 4.198,-12.74 0.542,-3.995 2.002,-7.809 4.267,-11.145 2.523,-2.3 5.447,-4.116 8.627,-5.359 3.561,-1.577 6.947,-3.522 10.103,-5.803 6.809,-5.423 12.456,-12.162 16.606,-19.814 2.005,-3.516 3.738,-7.347 5.41,-11.093 2.27,-5.94 5.435,-11.497 9.387,-16.478 8.533,-8.986 25.344,-2.313 32.154,0.947 12.994,5.836 24.94,13.766 35.362,23.475 l 0.981,1.007 c 11.042,11.671 22.792,22.652 35.183,32.879 10.251,7.919 21.483,14.479 33.417,19.516 -50.989,38.024 -115.079,54.05 -177.963,44.502 z m 193.041,-56.645 c -13.533,-5.007 -26.26,-11.967 -37.777,-20.659 -11.845,-9.803 -23.081,-20.318 -33.647,-31.488 l -0.981,-0.998 c -11.765,-11.148 -25.324,-20.235 -40.107,-26.88 -21.589,-10.359 -40.516,-9.387 -51.959,2.679 -5.335,6.317 -9.583,13.478 -12.57,21.188 -1.527,3.362 -3.012,6.682 -4.659,9.583 -3.035,5.673 -7.169,10.686 -12.16,14.746 -2.243,1.562 -4.635,2.897 -7.142,3.985 -5.199,2.134 -9.919,5.284 -13.884,9.267 -4.322,5.397 -7.166,11.825 -8.252,18.654 -0.594,3.052 -1.524,6.028 -2.773,8.875 -4.066,6.787 -6.393,14.472 -6.775,22.374 0.125,6.199 1.937,12.246 5.239,17.493 C 119.258,462.508 65.533,414.74 37.609,351.849 9.685,288.958 10.28,217.07 39.243,154.65 l 0.649,-1.408 c 2.316,-6.117 5.774,-11.737 10.189,-16.563 1.569,-1.565 3.419,-2.822 5.453,-3.703 3.68,-1.647 7.659,-2.518 11.691,-2.56 2.492,-0.058 4.967,0.437 7.245,1.451 3.222,1.625 5.509,4.65 6.195,8.192 0.748,7.635 -0.674,15.325 -4.104,22.187 -5.447,10.738 -6.703,23.118 -3.524,34.731 5.726,14.959 21.683,21.24 33.28,24.687 l 1.707,0.478 c 9.221,1.478 17.763,5.759 24.465,12.262 3.028,5.141 4.95,10.858 5.641,16.785 1.049,7.057 3.209,13.903 6.4,20.284 9.318,16.7 28.578,22.562 45.884,26.743 18.569,4.511 37.154,9.114 55.757,13.807 3.74,1.22 7.778,1.169 11.486,-0.145 4.325,-1.68 7.422,-5.543 8.124,-10.129 1.946,-12.928 -15.915,-28.476 -16.213,-28.698 l -4.489,-3.567 c -10.59,-8.311 -20.591,-16.162 -20.591,-28.16 -0.101,-5.04 2.803,-9.658 7.39,-11.75 3.183,-1.323 5.845,-0.358 12.049,2.56 1.707,0.802 3.413,1.604 4.975,2.236 6.63,3.556 14.785,2.529 20.326,-2.56 3.605,-4.024 5.126,-9.499 4.113,-14.805 -1.399,-11.375 -0.853,-16.077 4.881,-19.789 6.192,-3.403 12.914,-5.737 19.883,-6.904 4.909,-1.051 9.753,-2.387 14.507,-4.002 12.589,-5.023 24.447,-11.71 35.26,-19.883 1.707,-1.203 3.678,-2.347 5.658,-3.516 9.133,-4.094 16.401,-11.462 20.369,-20.651 4.019,-12.339 -2.458,-24.747 -19.268,-36.873 -10.795,-7.74 -27.162,-19.439 -45.645,-16.785 -5.735,1.053 -11.301,2.879 -16.546,5.427 -3.342,1.576 -6.814,2.861 -10.377,3.84 -3.421,0.79 -7.014,0.224 -10.027,-1.579 -1.254,-0.905 -1.323,-1.613 -1.348,-1.877 -0.188,-2.219 2.56,-4.958 6.827,-8.892 5.257,-4.13 9.396,-9.51 12.041,-15.65 3.51,-12.069 -1.671,-24.975 -12.553,-31.266 -10.334,-5.684 -22.336,-7.559 -33.911,-5.299 -4.061,0.478 -8.149,0.672 -12.237,0.58 -10.201,-0.553 -19.936,-4.452 -27.699,-11.093 106.216,-23.926 215.129,27.25 264.507,124.286 49.374,97.037 26.634,215.206 -55.231,286.986 z"
   id="path2"
   style="fill:#6c605c;fill-opacity:1"
   inkscape:connector-curvature="0"
   sodipodi:nodetypes="ccccccccsccccccccccccccccccccccccccccccccccccccccccccccccccccccccccccccccccccccccccccscccccccccccccccccccccccccccccccccccccccccccccc" />
	<path
   sodipodi:nodetypes="ccccccccsccccccccccccccccccccccccccccccccccccccccccccccccccccccccccccccccccccccccccccscccccccccccccccccccccccccccccccccccccccccccccc"
   inkscape:connector-curvature="0"
   style="fill:#6c605c;fill-opacity:1"
   id="path829"
   d="M 493.8,164.288 C 456.086,65.323 361.155,-0.054 255.248,0 c -23.555,-0.043 -47,3.203 -69.658,9.643 l -0.341,0.102 C 122.365,27.525 68.761,68.874 35.6,125.184 c -0.587,0.991 -0.967,2.092 -1.118,3.234 -4.075,5.439 -7.457,11.364 -10.069,17.638 l -0.64,1.382 c -36.715,79.082 -30.572,171.426 16.296,244.947 46.868,73.521 127.99,118.068 215.179,118.163 58.613,0.05 115.441,-20.167 160.853,-57.225 8.985,-7.654 0,0 8.985,-7.654 C 504.17,375.228 531.515,263.253 493.8,164.288 Z M 184.353,27.828 c 11.282,13.837 27.906,22.236 45.739,23.108 4.876,0.126 9.754,-0.087 14.601,-0.64 7.839,-1.777 16.05,-0.8 23.253,2.765 4.032,2.156 6.258,6.628 5.547,11.145 -1.852,3.402 -4.392,6.38 -7.458,8.747 -7.626,5.173 -12.221,13.765 -12.288,22.98 0.577,5.737 3.648,10.929 8.397,14.199 7.021,4.69 15.673,6.257 23.893,4.326 4.554,-1.193 8.99,-2.798 13.252,-4.796 3.875,-1.906 7.975,-3.313 12.203,-4.19 10.803,-1.519 21.896,5.623 33.22,13.747 5.675,4.105 14.916,11.861 13.005,17.749 -1.468,4.514 -6.98,7.774 -12.8,11.238 -2.355,1.391 -4.659,2.756 -7.322,4.608 -9.426,7.137 -19.756,12.993 -30.72,17.417 -4.144,1.379 -8.363,2.519 -12.638,3.413 -8.902,1.557 -17.456,4.68 -25.267,9.225 -15.676,10.121 -13.764,26.317 -12.561,36.053 -0.282,-0.094 -0.589,-0.205 -0.922,-0.35 -1.459,-0.597 -2.893,-1.28 -4.318,-1.946 -8.824,-5.952 -20.254,-6.41 -29.526,-1.181 -9.272,5.228 -14.795,15.246 -14.267,25.877 0,20.25 15.036,32.06 27.119,41.54 l 4.198,3.328 c 2.667,2.45 5.067,5.176 7.159,8.132 -17.152,-4.318 -34.315,-8.565 -51.49,-12.74 -14.438,-3.49 -29.013,-7.791 -34.987,-18.475 -2.283,-4.841 -3.822,-9.999 -4.565,-15.3 -1.082,-8.411 -4.039,-16.471 -8.653,-23.586 -8.758,-9.775 -20.56,-16.306 -33.493,-18.534 l -1.562,-0.444 c -12.8,-3.806 -19.814,-8.388 -22.101,-14.387 -1.426,-7.786 -0.156,-15.825 3.601,-22.793 4.824,-10.035 6.433,-21.315 4.608,-32.299 -1.915,-8.423 -7.545,-15.525 -15.309,-19.311 -4.613,-2.148 -9.649,-3.23 -14.737,-3.166 -1.084,0 -2.185,0.051 -3.294,0.137 29.974,-40.682 72.201,-70.683 120.483,-85.596 z m 35.038,462.882 0.077,0.077 c -3.348,-1.857 -6.596,-3.891 -9.728,-6.093 -6.898,-4.297 -11.614,-11.354 -12.945,-19.371 0.476,-5.147 2.141,-10.113 4.864,-14.507 1.907,-4.062 3.317,-8.34 4.198,-12.74 0.542,-3.995 2.002,-7.809 4.267,-11.145 2.523,-2.3 5.447,-4.116 8.627,-5.359 3.561,-1.577 6.947,-3.522 10.103,-5.803 6.809,-5.423 12.456,-12.162 16.606,-19.814 2.005,-3.516 3.738,-7.347 5.41,-11.093 2.27,-5.94 5.435,-11.497 9.387,-16.478 8.533,-8.986 25.344,-2.313 32.154,0.947 12.994,5.836 24.94,13.766 35.362,23.475 l 0.981,1.007 c 11.042,11.671 22.792,22.652 35.183,32.879 10.251,7.919 21.483,14.479 33.417,19.516 -50.989,38.024 -115.079,54.05 -177.963,44.502 z m 193.041,-56.645 c -13.533,-5.007 -26.26,-11.967 -37.777,-20.659 -11.845,-9.803 -23.081,-20.318 -33.647,-31.488 l -0.981,-0.998 c -11.765,-11.148 -25.324,-20.235 -40.107,-26.88 -21.589,-10.359 -40.516,-9.387 -51.959,2.679 -5.335,6.317 -9.583,13.478 -12.57,21.188 -1.527,3.362 -3.012,6.682 -4.659,9.583 -3.035,5.673 -7.169,10.686 -12.16,14.746 -2.243,1.562 -4.635,2.897 -7.142,3.985 -5.199,2.134 -9.919,5.284 -13.884,9.267 -4.322,5.397 -7.166,11.825 -8.252,18.654 -0.594,3.052 -1.524,6.028 -2.773,8.875 -4.066,6.787 -6.393,14.472 -6.775,22.374 0.125,6.199 1.937,12.246 5.239,17.493 C 119.258,462.508 65.533,414.74 37.609,351.849 9.685,288.958 10.28,217.07 39.243,154.65 l 0.649,-1.408 c 2.316,-6.117 5.774,-11.737 10.189,-16.563 1.569,-1.565 3.419,-2.822 5.453,-3.703 3.68,-1.647 7.659,-2.518 11.691,-2.56 2.492,-0.058 4.967,0.437 7.245,1.451 3.222,1.625 5.509,4.65 6.195,8.192 0.748,7.635 -0.674,15.325 -4.104,22.187 -5.447,10.738 -6.703,23.118 -3.524,34.731 5.726,14.959 21.683,21.24 33.28,24.687 l 1.707,0.478 c 9.221,1.478 17.763,5.759 24.465,12.262 3.028,5.141 4.95,10.858 5.641,16.785 1.049,7.057 3.209,13.903 6.4,20.284 9.318,16.7 28.578,22.562 45.884,26.743 18.569,4.511 37.154,9.114 55.757,13.807 3.74,1.22 7.778,1.169 11.486,-0.145 4.325,-1.68 7.422,-5.543 8.124,-10.129 1.946,-12.928 -15.915,-28.476 -16.213,-28.698 l -4.489,-3.567 c -10.59,-8.311 -20.591,-16.162 -20.591,-28.16 -0.101,-5.04 2.803,-9.658 7.39,-11.75 3.183,-1.323 5.845,-0.358 12.049,2.56 1.707,0.802 3.413,1.604 4.975,2.236 6.63,3.556 14.785,2.529 20.326,-2.56 3.605,-4.024 5.126,-9.499 4.113,-14.805 -1.399,-11.375 -0.853,-16.077 4.881,-19.789 6.192,-3.403 12.914,-5.737 19.883,-6.904 4.909,-1.051 9.753,-2.387 14.507,-4.002 12.589,-5.023 24.447,-11.71 35.26,-19.883 1.707,-1.203 3.678,-2.347 5.658,-3.516 9.133,-4.094 16.401,-11.462 20.369,-20.651 4.019,-12.339 -2.458,-24.747 -19.268,-36.873 -10.795,-7.74 -27.162,-19.439 -45.645,-16.785 -5.735,1.053 -11.301,2.879 -16.546,5.427 -3.342,1.576 -6.814,2.861 -10.377,3.84 -3.421,0.79 -7.014,0.224 -10.027,-1.579 -1.254,-0.905 -1.323,-1.613 -1.348,-1.877 -0.188,-2.219 2.56,-4.958 6.827,-8.892 5.257,-4.13 9.396,-9.51 12.041,-15.65 3.51,-12.069 -1.671,-24.975 -12.553,-31.266 -10.334,-5.684 -22.336,-7.559 -33.911,-5.299 -4.061,0.478 -8.149,0.672 -12.237,0.58 -10.201,-0.553 -19.936,-4.452 -27.699,-11.093 106.216,-23.926 215.129,27.25 264.507,124.286 49.374,97.037 26.634,215.206 -55.231,286.986 z" /></g>
</g>
<g
   id="g8">
</g>
<g
   id="g10">
</g>
<g
   id="g12">
</g>
<g
   id="g14">
</g>
<g
   id="g16">
</g>
<g
   id="g18">
</g>
<g
   id="g20">
</g>
<g
   id="g22">
</g>
<g
   id="g24">
</g>
<g
   id="g26">
</g>
<g
   id="g28">
</g>
<g
   id="g30">
</g>
<g
   id="g32">
</g>
<g
   id="g34">
</g>
<g
   id="g36">
</g>
</svg>