<?xml version="1.0" encoding="UTF-8" standalone="no"?>
<!-- Created with Inkscape (http://www.inkscape.org/) -->

<svg
   xmlns:dc="http://purl.org/dc/elements/1.1/"
   xmlns:cc="http://creativecommons.org/ns#"
   xmlns:rdf="http://www.w3.org/1999/02/22-rdf-syntax-ns#"
   xmlns:svg="http://www.w3.org/2000/svg"
   xmlns="http://www.w3.org/2000/svg"
   xmlns:sodipodi="http://sodipodi.sourceforge.net/DTD/sodipodi-0.dtd"
   xmlns:inkscape="http://www.inkscape.org/namespaces/inkscape"
   version="1.1"
   id="svg2"
   xml:space="preserve"
   width="215.00002"
   height="215"
   viewBox="0 0 215.00002 215.00001"
   sodipodi:docname="logo.svg"
   inkscape:version="0.92.5 (0.92.5+68)"><metadata
     id="metadata8"><rdf:RDF><cc:Work
         rdf:about=""><dc:format>image/svg+xml</dc:format><dc:type
           rdf:resource="http://purl.org/dc/dcmitype/StillImage" /><dc:title></dc:title></cc:Work></rdf:RDF></metadata><defs
     id="defs6" /><sodipodi:namedview
     pagecolor="#ffffff"
     bordercolor="#666666"
     borderopacity="1"
     objecttolerance="10"
     gridtolerance="10"
     guidetolerance="10"
     inkscape:pageopacity="0"
     inkscape:pageshadow="2"
     inkscape:window-width="1541"
     inkscape:window-height="876"
     id="namedview4"
     showgrid="false"
     inkscape:zoom="2"
     inkscape:cx="73.80308"
     inkscape:cy="127.75506"
     inkscape:window-x="59"
     inkscape:window-y="24"
     inkscape:window-maximized="1"
     inkscape:current-layer="g10"
     fit-margin-top="0"
     fit-margin-left="0"
     fit-margin-right="0"
     fit-margin-bottom="0"
     showguides="false" /><g
     id="g10"
     inkscape:groupmode="layer"
     inkscape:label="dkd-2016-logo-RGB-108-96-92"
     transform="matrix(1.3333333,0,0,-1.3333333,-199.16666,437.38463)"><g
       id="g12"
       transform="translate(1.8626711e-6,9.3749886)"><g
   id="g32"
   transform="matrix(1.171875,0,0,-1.171875,-39.531252,433.18249)"
   style="stroke-width:0.85333329" />
<g
   id="g888"
   transform="translate(4.609375e-6,0.32849507)"><path
   sodipodi:nodetypes="ccscccccccsccccscccscccscscscscscccsccscscscs"
   inkscape:connector-curvature="0"
   id="path16"
   style="opacity:1;fill:#ffffff;fill-opacity:1;fill-rule:nonzero;stroke:none;stroke-width:0.99999982"
   d="m 267.04893,233.94853 -18.46212,-15.04676 29.5585,-26.33206 c 3.33847,-2.97406 6.18622,-5.01379 8.54326,-6.1237 2.41938,-1.10541 5.40087,-1.74949 8.93643,-1.92418 v -3.06184 h -23.27374 l -37.02078,31.66745 v 0.61272 l 19.05038,15.57171 c 3.66527,2.97405 5.49942,5.6301 5.49942,7.96097 0,2.79939 -2.88295,4.25775 -8.6418,4.3733 v 3.06186 h 38.78855 v -3.06186 h -3.43701 c -6.87402,0 -13.39007,-2.56468 -19.54109,-7.69761 z m -35.01468,60.01147 3.33947,-2.5e-4 V 193.79427 c 0,-3.499 0.85171,-5.91676 2.55312,-7.26046 1.70443,-1.34014 4.81162,-2.01198 9.3286,-2.01198 v -3.06184 h -41.44022 c -12.76561,0 -22.88056,3.12097 -30.34384,9.36023 -7.39591,6.24283 -11.09638,14.11602 -11.09638,23.61956 0,8.92308 3.24092,16.50603 9.72177,22.74528 6.54822,6.29837 14.43585,9.448 23.66591,9.448 7.40094,0 15.38611,-2.56555 23.96154,-7.69851 v 38.9288 c 0,4.25865 -0.62144,7.14582 -1.86632,8.66061 -1.24087,1.51838 -3.76282,2.27445 -7.56083,2.27445 h -4.02627 v 3.06185 z m -10.31003,-99.99016 v 38.2283 c -2.75021,3.32431 -5.99013,5.92123 -9.72178,7.78629 -3.66527,1.92418 -7.32954,2.88717 -10.99883,2.88717 -6.48085,0 -11.71682,-2.38998 -15.71191,-7.17357 -3.99108,-4.72445 -5.99014,-10.90369 -5.99014,-18.54576 0,-9.8538 2.71804,-17.78701 8.15109,-23.79515 5.49841,-6.00455 13.15778,-9.01086 22.9781,-9.01086 3.9951,0 6.87402,0.75964 8.6418,2.27534 1.76778,1.51837 2.65167,3.9675 2.65167,7.34824 z" />



</g>
</g></g></svg>